<svg width="35" height="37" viewBox="0 0 35 37" fill="none" xmlns="http://www.w3.org/2000/svg">
<rect x="0.448718" y="0.448718" width="34.1026" height="35.9447" rx="8.76181" fill="url(#paint0_linear_17_97)"/>
<rect x="0.448718" y="0.448718" width="34.1026" height="35.9447" rx="8.76181" stroke="#E4E4E4" stroke-width="0.897436"/>
<path d="M22.6 13.4211H24.4C25.5598 13.4211 26.5 14.3613 26.5 15.5211C26.5 16.2943 25.8732 16.9211 25.1 16.9211H21.9C21.1268 16.9211 20.5 16.2943 20.5 15.5211C20.5 14.3613 21.4402 13.4211 22.6 13.4211Z" fill="#B11717"/>
<path d="M25.5 11.4211C25.5 12.5257 24.6046 13.4211 23.5 13.4211C22.3954 13.4211 21.5 12.5257 21.5 11.4211C21.5 10.3166 22.3954 9.42114 23.5 9.42114C24.6046 9.42114 25.5 10.3166 25.5 11.4211Z" fill="#B11717"/>
<path opacity="0.4" d="M26.5 25.4211V23.7752C26.5 22.9574 26.0021 22.222 25.2428 21.9183L23.2086 21.1046C22.2429 20.7183 21.1422 21.1368 20.677 22.0671L20.5 22.4211C20.5 22.4211 18 21.9211 16 19.9211C14 17.9211 13.5 15.4211 13.5 15.4211L13.854 15.2441C14.7844 14.779 15.2029 13.6783 14.8165 12.7125L14.0029 10.6784C13.6992 9.91905 12.9637 9.42114 12.1459 9.42114H10.5C9.39543 9.42114 8.5 10.3166 8.5 11.4211C8.5 20.2577 15.6634 27.4211 24.5 27.4211C25.6046 27.4211 26.5 26.5257 26.5 25.4211Z" fill="#B11717"/>
<defs>
<linearGradient id="paint0_linear_17_97" x1="-4.5" y1="-9.5791" x2="30" y2="39.9209" gradientUnits="userSpaceOnUse">
<stop stop-color="#FFC3C3"/>
<stop offset="1" stop-color="#F56767"/>
</linearGradient>
</defs>
</svg>
