<svg viewBox="0 0 1000 1000" width="100%" height="100%" preserveAspectRatio="xMidYMid meet" fill="none" xmlns="http://www.w3.org/2000/svg"><defs><linearGradient id="flowGradient" gradientUnits="userSpaceOnUse"><stop offset="0%" stop-color="transparent"></stop><stop offset="40%" stop-color="rgb(79, 172, 254)"></stop><stop offset="60%" stop-color="rgb(139, 92, 246)"></stop><stop offset="100%" stop-color="transparent"></stop></linearGradient></defs><circle cx="500" cy="500" r="10" fill="rgb(79, 172, 254)"></circle><g><path d="M380 120 C300 260 360 380 480 520" stroke="rgb(125, 211, 252)" stroke-width="1" opacity="0.35" fill="none"></path><path d="M380 120 C300 260 360 380 480 520" stroke="url(#flowGradient)" stroke-width="1.6" fill="none" stroke-dasharray="400 800" stroke-dashoffset="315.29411764706765" will-change="auto"></path></g><g><path d="M620 120 C700 260 640 380 520 520" stroke="rgb(125, 211, 252)" stroke-width="1" opacity="0.35" fill="none"></path><path d="M620 120 C700 260 640 380 520 520" stroke="url(#flowGradient)" stroke-width="1.6" fill="none" stroke-dasharray="400 800" stroke-dashoffset="-791.2328767123199" will-change="auto"></path></g><g><path d="M120 460 C260 440 360 480 500 500" stroke="rgb(125, 211, 252)" stroke-width="1" opacity="0.35" fill="none"></path><path d="M120 460 C260 440 360 480 500 500" stroke="url(#flowGradient)" stroke-width="1.6" fill="none" stroke-dasharray="400 800" stroke-dashoffset="-525.1282051282033" will-change="auto"></path></g><g><path d="M880 540 C740 560 640 520 500 500" stroke="rgb(125, 211, 252)" stroke-width="1" opacity="0.35" fill="none"></path><path d="M880 540 C740 560 640 520 500 500" stroke="url(#flowGradient)" stroke-width="1.6" fill="none" stroke-dasharray="400 800" stroke-dashoffset="-734.4578313253123" will-change="auto"></path></g><g><path d="M360 880 C300 740 360 620 500 500" stroke="rgb(125, 211, 252)" stroke-width="1" opacity="0.35" fill="none"></path><path d="M360 880 C300 740 360 620 500 500" stroke="url(#flowGradient)" stroke-width="1.6" fill="none" stroke-dasharray="400 800" stroke-dashoffset="-10.909090909080987" will-change="auto"></path></g><g><path d="M640 880 C700 740 640 620 500 500" stroke="rgb(125, 211, 252)" stroke-width="1" opacity="0.35" fill="none"></path><path d="M640 880 C700 740 640 620 500 500" stroke="url(#flowGradient)" stroke-width="1.6" fill="none" stroke-dasharray="400 800" stroke-dashoffset="-104.94623655913529" will-change="auto"></path></g></svg>