<svg xmlns="http://www.w3.org/2000/svg" viewBox="0 0 256 256" focusable="false" color="var(--token-a36d64c4-7dd2-4634-9c85-c24f13463c3f, rgb(255, 255, 255))" style="user-select: none; width: 100%; height: 100%; display: inline-block; fill: var(--token-a36d64c4-7dd2-4634-9c85-c24f13463c3f, rgb(255, 255, 255)); color: var(--token-a36d64c4-7dd2-4634-9c85-c24f13463c3f, rgb(255, 255, 255)); flex-shrink: 0;"><g color="var(--token-a36d64c4-7dd2-4634-9c85-c24f13463c3f, rgb(255, 255, 255))" weight="bold"><path d="M216,20H40A20,20,0,0,0,20,40V216a20,20,0,0,0,20,20H216a20,20,0,0,0,20-20V40A20,20,0,0,0,216,20Zm-4,192H44V44H212ZM112,176V120a12,12,0,0,1,21.43-7.41A40,40,0,0,1,192,148v28a12,12,0,0,1-24,0V148a16,16,0,0,0-32,0v28a12,12,0,0,1-24,0ZM96,120v56a12,12,0,0,1-24,0V120a12,12,0,0,1,24,0ZM68,80A16,16,0,1,1,84,96,16,16,0,0,1,68,80Z"></path></g></svg>