<svg style="width:100%;height:100%;overflow: visible;" preserveAspectRatio="none" width="100%" height="100%" xmlns="http://www.w3.org/2000/svg"><defs><svg viewBox="0 0 34.103 35.945" overflow="visible" id="svg116141462_2741"><g><g><defs><linearGradient id="svg116141462_2741_idscLkdcP1dw_2g-1253047425" x1="0.15059732083890942" x2="0.8494026791610906" y1="0" y2="1"><stop offset="0" stop-color="rgb(255,232,195)" stop-opacity="1"></stop><stop offset="1" stop-color="rgb(245,233,103)" stop-opacity="1"></stop></linearGradient></defs><path d="M 8.762 35.945 C 3.923 35.945 0 32.022 0 27.183 L 0 8.762 C 0 3.923 3.923 0 8.762 0 L 25.341 0 C 30.18 0 34.103 3.923 34.103 8.762 L 34.103 27.183 C 34.103 32.022 30.18 35.945 25.341 35.945 Z" fill="url(#svg116141462_2741_idscLkdcP1dw_2g-1253047425)"></path></g><path d="M 8.762 35.945 C 3.923 35.945 0 32.022 0 27.183 L 0 8.762 C 0 3.923 3.923 0 8.762 0 L 25.341 0 C 30.18 0 34.103 3.923 34.103 8.762 L 34.103 27.183 C 34.103 32.022 30.18 35.945 25.341 35.945 Z" fill="transparent" stroke-width="0.897" stroke="rgb(228,228,228)" stroke-miterlimit="10" stroke-dasharray=""></path><path d="M 13.974 9.254 C 15.646 7.582 18.356 7.582 20.028 9.254 L 25.748 14.973 C 27.419 16.645 27.419 19.355 25.748 21.027 L 20.028 26.747 C 18.356 28.418 15.646 28.418 13.974 26.747 L 8.254 21.027 C 6.582 19.355 6.582 16.645 8.254 14.973 Z" fill="rgb(197,179,6)" opacity="0.4"></path><path d="M 18 13.146 L 18.72 13.866 C 18.908 14.061 19.187 14.139 19.449 14.07 C 19.711 14.002 19.916 13.797 19.984 13.534 C 20.053 13.272 19.975 12.993 19.78 12.805 L 18.487 11.512 C 17.803 10.829 16.696 10.829 16.013 11.512 L 14.72 12.805 C 14.444 13.101 14.452 13.561 14.738 13.847 C 15.024 14.132 15.484 14.14 15.78 13.865 L 16.5 13.145 L 16.5 18.285 C 15.62 17.458 14.457 16.998 13.25 16.999 L 12.646 16.999 L 13.366 16.279 C 13.641 15.984 13.633 15.523 13.347 15.238 C 13.062 14.952 12.601 14.944 12.306 15.219 L 11.013 16.512 C 10.684 16.84 10.5 17.285 10.5 17.75 C 10.5 18.214 10.684 18.659 11.013 18.987 L 12.306 20.28 C 12.494 20.475 12.773 20.553 13.035 20.484 C 13.297 20.416 13.502 20.211 13.57 19.948 C 13.639 19.686 13.561 19.407 13.366 19.219 L 12.646 18.499 L 13.25 18.499 C 15.045 18.499 16.5 19.954 16.5 21.749 L 16.5 22.749 C 16.5 23.163 16.835 23.499 17.25 23.499 C 17.664 23.499 18 23.163 18 22.749 L 18 21.749 C 18 19.954 19.455 18.499 21.25 18.499 L 21.854 18.499 L 21.134 19.219 C 20.858 19.515 20.866 19.975 21.152 20.261 C 21.438 20.546 21.898 20.554 22.194 20.279 L 23.487 18.987 C 23.815 18.659 23.999 18.214 23.999 17.75 C 23.999 17.285 23.815 16.84 23.487 16.512 L 22.195 15.219 C 22.006 15.024 21.728 14.946 21.465 15.014 C 21.203 15.083 20.998 15.287 20.929 15.55 C 20.861 15.812 20.939 16.091 21.134 16.279 L 21.854 16.999 L 21.25 16.999 C 19.993 16.999 18.85 17.488 18 18.285 L 18 13.145 Z" fill="rgb(40,48,63)"></path></g></svg></defs><use href="#svg116141462_2741"></use></svg>