<svg xmlns="http://www.w3.org/2000/svg" viewBox="0 0 256 256" focusable="false" color="var(--token-a36d64c4-7dd2-4634-9c85-c24f13463c3f, rgb(255, 255, 255))" style="user-select: none; width: 100%; height: 100%; display: inline-block; fill: var(--token-a36d64c4-7dd2-4634-9c85-c24f13463c3f, rgb(255, 255, 255)); color: var(--token-a36d64c4-7dd2-4634-9c85-c24f13463c3f, rgb(255, 255, 255)); flex-shrink: 0;"><g color="var(--token-a36d64c4-7dd2-4634-9c85-c24f13463c3f, rgb(255, 255, 255))" weight="bold"><path d="M128,20A108,108,0,1,0,236,128,108.12,108.12,0,0,0,128,20Zm12,191.13V156h20a12,12,0,0,0,0-24H140V112a12,12,0,0,1,12-12h16a12,12,0,0,0,0-24H152a36,36,0,0,0-36,36v20H96a12,12,0,0,0,0,24h20v55.13a84,84,0,1,1,24,0Z"></path></g></svg>