<svg xmlns="http://www.w3.org/2000/svg" width="17" height="17" fill="none" overflow="visible"><g><path d="M 13.386 2.767 L 11.516 4.635 C 9.335 2.897 6.195 3.078 4.228 5.053 C 2.261 7.029 2.097 10.167 3.848 12.337 C 5.599 14.506 8.703 15.012 11.053 13.51 C 13.402 12.008 14.244 8.98 13.007 6.483 L 14.937 4.554 C 15.767 5.853 16.207 7.363 16.205 8.905 C 16.205 13.376 12.577 17 8.102 17 C 3.627 17 0 13.376 0 8.905 C 0 4.434 3.627 0.81 8.102 0.81 C 10.041 0.807 11.917 1.502 13.385 2.767 Z" fill="rgb(255, 255, 255)" opacity="0.4"></path><path d="M 10.85 5.297 C 9.155 4.032 6.786 4.205 5.292 5.703 C 3.798 7.201 3.633 9.568 4.906 11.258 C 6.179 12.948 8.501 13.445 10.356 12.426 C 12.21 11.406 13.032 9.18 12.284 7.201 L 10.514 8.969 C 10.396 9.941 9.656 10.722 8.69 10.893 C 7.725 11.064 6.761 10.584 6.316 9.71 C 5.872 8.837 6.051 7.776 6.757 7.097 C 7.464 6.418 8.532 6.28 9.388 6.757 Z" fill="rgb(255, 255, 255)"></path><path d="M 16.837 1.021 L 9.307 8.544 C 9.369 8.975 9.148 9.398 8.758 9.592 C 8.368 9.787 7.897 9.711 7.589 9.403 C 7.28 9.095 7.204 8.624 7.399 8.235 C 7.594 7.845 8.017 7.624 8.449 7.686 L 15.978 0.163 C 16.217 -0.06 16.591 -0.053 16.822 0.178 C 17.053 0.409 17.06 0.782 16.837 1.021 Z" fill="rgb(255, 255, 255)"></path></g></svg>