<svg xmlns="http://www.w3.org/2000/svg" width="19.992" height="14" fill="none" overflow="visible"><g><path d="M 0 9.578 L 0 3.57 C 0 2.735 0.428 1.97 1.106 1.597 L 3.156 0.466 C 3.703 0.162 4.318 0.002 4.943 0 L 6.624 0 C 7.865 0 9.022 0.634 9.773 1.691 L 7.833 4.366 C 7.358 5.021 7.406 5.966 7.943 6.559 C 8.208 6.865 8.593 7.041 8.999 7.041 C 9.404 7.041 9.789 6.865 10.054 6.559 L 11.47 4.997 L 13.76 9.631 C 14.387 10.899 13.76 12.478 12.49 12.829 L 8.96 13.802 C 7.688 14.153 6.332 14.033 5.141 13.465 L 1.211 11.606 C 0.477 11.26 0 10.461 0 9.578 Z" fill="rgb(255, 255, 255)" opacity="0.4"></path><path d="M 19.992 9.827 L 19.992 3.57 C 19.992 2.735 19.564 1.97 18.886 1.597 L 16.836 0.466 C 16.289 0.162 15.674 0.002 15.049 0 L 12.915 0 C 11.7 0 10.551 0.61 9.792 1.656 L 7.828 4.366 C 7.352 5.021 7.4 5.966 7.938 6.559 C 8.203 6.865 8.588 7.041 8.993 7.041 C 9.397 7.041 9.782 6.865 10.048 6.559 L 11.464 4.997 L 13.754 9.631 C 14.154 10.438 14.044 11.371 13.584 12.033 L 17.992 12.033 C 19.097 12.033 19.992 11.045 19.992 9.827 Z" fill="rgb(255, 255, 255)"></path></g></svg>