<svg xmlns="http://www.w3.org/2000/svg" width="18" height="16" fill="none" overflow="visible"><g><path d="M 9.9 0 L 8.1 0 C 3.626 0 0 3.582 0 8 L 0 12.444 C 0 14.408 1.612 16 3.6 16 L 9.9 16 C 14.374 16 18 12.418 18 8 C 18 3.582 14.374 0 9.9 0 Z" fill="rgb(255, 255, 255)" opacity="0.4"></path><path d="M 12.278 9.587 C 12.506 9.303 12.921 9.25 13.214 9.467 C 13.507 9.685 13.57 10.094 13.357 10.389 L 13.357 10.39 L 13.355 10.39 L 13.353 10.393 L 13.348 10.4 L 13.33 10.422 C 13.243 10.528 13.153 10.63 13.058 10.727 C 12.812 10.98 12.544 11.211 12.257 11.417 C 11.564 11.915 10.528 12.433 9.217 12.433 C 7.905 12.433 6.869 11.915 6.175 11.417 C 5.803 11.149 5.463 10.839 5.162 10.494 C 5.142 10.47 5.122 10.446 5.103 10.422 L 5.086 10.4 L 5.08 10.393 L 5.078 10.39 L 5.077 10.389 C 4.863 10.094 4.926 9.685 5.219 9.467 C 5.512 9.25 5.928 9.303 6.155 9.587 L 6.155 9.587 L 6.161 9.595 L 6.196 9.637 C 6.229 9.675 6.28 9.734 6.349 9.806 C 6.54 10.001 6.748 10.179 6.97 10.339 C 7.514 10.73 8.278 11.1 9.217 11.1 C 10.155 11.1 10.919 10.729 11.463 10.338 C 11.747 10.133 12.007 9.898 12.237 9.636 L 12.272 9.595 L 12.277 9.589 L 12.277 9.589 L 12.278 9.586 L 12.277 9.589 L 12.277 9.589 Z M 6.156 9.588 L 6.156 9.587 L 6.155 9.587 L 6.155 9.587 Z" fill="rgb(255, 255, 255)"></path></g></svg>