<svg xmlns="http://www.w3.org/2000/svg" width="16" height="16" fill="none" overflow="visible"><g><g opacity="0.4"><defs><linearGradient id="idid_ZGpJBerU8g181" x1="0.49751243781094523" x2="0.5024875621890548" y1="0" y2="1"><stop offset="0" stop-color="rgb(255, 255, 255)" stop-opacity="1"></stop><stop offset="1" stop-color="rgb(255, 255, 255)" stop-opacity="1"></stop></linearGradient></defs><path d="M 3.556 5.622 L 12.444 5.622 C 14.408 5.622 16 7.17 16 9.081 L 16 12.541 C 16 14.451 14.408 16 12.444 16 L 3.556 16 C 1.592 16 0 14.451 0 12.541 L 0 9.081 C 0 7.17 1.592 5.622 3.556 5.622 Z" fill="url(#idid_ZGpJBerU8g181)"></path></g><g><defs><linearGradient id="idid_HoawE6YCng181" x1="0.49751243781094523" x2="0.5024875621890548" y1="0" y2="1"><stop offset="0" stop-color="rgb(255, 255, 255)" stop-opacity="1"></stop><stop offset="1" stop-color="rgb(255, 255, 255)" stop-opacity="1"></stop></linearGradient></defs><path d="M 5.084 7.974 C 4.824 8.227 4.824 8.638 5.084 8.891 L 7.751 11.485 C 8.011 11.738 8.432 11.738 8.693 11.485 L 11.359 8.891 C 11.538 8.729 11.611 8.486 11.551 8.256 C 11.491 8.026 11.306 7.846 11.07 7.788 C 10.834 7.729 10.583 7.801 10.417 7.974 L 8.888 9.462 L 8.888 0.649 C 8.888 0.29 8.59 0 8.222 0 C 7.853 0 7.555 0.29 7.555 0.649 L 7.555 9.462 L 6.026 7.974 C 5.766 7.721 5.344 7.721 5.084 7.974 Z" fill="url(#idid_HoawE6YCng181)"></path></g></g></svg>